/* XPM */
static char * darkplaces_xpm[] = {
"48 48 91 1",
" 	c None",
".	c #020300",
"+	c #120303",
"@	c #180202",
"#	c #200301",
"$	c #340100",
"%	c #410000",
"&	c #2D0704",
"*	c #11120F",
"=	c #4F0701",
"-	c #3F0F00",
";	c #251615",
">	c #780000",
",	c #2D1514",
"'	c #1D1C1A",
")	c #680F01",
"!	c #431A10",
"~	c #3B221D",
"{	c #2B2725",
"]	c #601B02",
"^	c #9D0A00",
"/	c #55220A",
"(	c #3D2B25",
"_	c #53291D",
":	c #4E2E1B",
"<	c #333432",
"[	c #4C2F26",
"}	c #812301",
"|	c #3F332F",
"1	c #6B321A",
"2	c #3F3F3D",
"3	c #7E320E",
"4	c #563B35",
"5	c #4B3E39",
"6	c #533F39",
"7	c #6D3A2F",
"8	c #943508",
"9	c #514541",
"0	c #654132",
"a	c #474845",
"b	c #6D442B",
"c	c #7C4328",
"d	c #504F4D",
"e	c #674A43",
"f	c #644F47",
"g	c #5E514B",
"h	c #B64005",
"i	c #91472F",
"j	c #575654",
"k	c #AD4A11",
"l	c #82533C",
"m	c #5F5E5B",
"n	c #745C54",
"o	c #6C5E5A",
"p	c #A25329",
"q	c #825C54",
"r	c #676664",
"s	c #816A62",
"t	c #70706E",
"u	c #986951",
"v	c #7D706C",
"w	c #C66935",
"x	c #7E7C79",
"y	c #FA6400",
"z	c #937B73",
"A	c #9E796A",
"B	c #B97557",
"C	c #A67B5D",
"D	c #878581",
"E	c #8F8D8B",
"F	c #AF8A7D",
"G	c #A58D83",
"H	c #9C8F8C",
"I	c #979693",
"J	c #B79590",
"K	c #A59F9C",
"L	c #DD9472",
"M	c #B39D97",
"N	c #EB9462",
"O	c #C1A391",
"P	c #D19F8D",
"Q	c #D1A184",
"R	c #B6B0AD",
"S	c #C8C2BF",
"T	c #DDC0BC",
"U	c #E1C2B0",
"V	c #F8BE99",
"W	c #DDD3CE",
"X	c #EFE4E0",
"Y	c #FEE4C7",
"Z	c #FDFEFA",
"                                                ",
"                  ID                            ",
"                  tvr                           ",
"                  59aI                          ",
"                  4v2t                          ",
"                  4I2r                          ",
"                 E[Xaj                          ",
"                 z7Xda     RHrqsE               ",
"                 f2XjaD    Itj93][zH            ",
"                 92Wd2x     Ixja2,pQDI          ",
"                 92Xx2t        Irjb&FIx         ",
"                 5aZx5r          Dj{,ORx        ",
"             xsja,eXt2r            t'+XIt       ",
"          Mu/+|<<;[Xr2r             j!AXjt      ",
"        Kq3=[222a,5Xt2r              5;SSdI     ",
"       H;0A5222j ~oZr2t              t+CWjr     ",
"      z37(2<2ax  <aXm2x               5/ZEaE    ",
"      ,ARd22jD   5|Wr2x               s3YRar    ",
"     90XM22jI    f,Sr2D               z)FZaj    ",
"    H#UZj<dx     m*Er2x               D-OZaa    ",
"    [0ZI2at      a_Frax               I]QZ2aR   ",
"    cOXr2a     Ev{00sgr               D/OZa2R   ",
"   v3uva2t     Ijaa222aD              v]WX2aR   ",
"   giUI2aK      tjaaaajjtxtDKKR       e]UM2aR   ",
"   c8OS2j           I  D<#8/djjD      ]kCr2j    ",
"   (!OS2j               r;0v22ax      =3c52j    ",
"   4-TS2r                'gRa<r      5/!c2at    ",
"   n8US2r                'jXaaD     D[&192jS    ",
"   v]OMaj                'jZaaI     SEKr22x     ",
"   I+sA9j                |oZaaI    HZRra2j      ",
"    ~eHdaD               [nZa2I  H[Avv22jD      ",
"    r&uWdr               *{oa2DIe)#f522aD       ",
"     40u0aI              +zj{j{;+:5a<ajD        ",
"     xBL3gr             K<ZS{j{<2<22arX         ",
"      vc[Omx            IvKZd<22ajjt            ",
"       j1czxD           I[RZa2jtDD              ",
"        j<pLoD          IoDZa2x                 ",
"         r50[0zDI        zSSa2E                 ",
"          Djaa55|dxI     0SRaa                  ",
"            xjjaadrx     g|vaa                  ",
"               RRR       reD<j                  ",
"                         D4r2r                  ",
"                          [j2t                  ",
"                          faaD                  ",
"                          gajI                  ",
"                          xjr                   ",
"                           DI                   ",
"                                                "};
