/* XPM */
static char * nexuiz_xpm[] = {
"48 48 91 1",
" 	c None",
".	c #000000",
"+	c #040404",
"@	c #070707",
"#	c #090909",
"$	c #0B0B0B",
"%	c #0E0E0E",
"&	c #121212",
"*	c #161616",
"=	c #181818",
"-	c #212121",
";	c #242424",
">	c #262626",
",	c #282828",
"'	c #2A2A2A",
")	c #2D2D2D",
"!	c #313131",
"~	c #343434",
"{	c #383838",
"]	c #3A3A3A",
"^	c #3E3E3E",
"/	c #414141",
"(	c #434343",
"_	c #454545",
":	c #474747",
"<	c #4B4B4B",
"[	c #515151",
"}	c #595959",
"|	c #5C5C5C",
"1	c #5E5E5E",
"2	c #606060",
"3	c #626262",
"4	c #656565",
"5	c #696969",
"6	c #6B6B6B",
"7	c #6E6E6E",
"8	c #727272",
"9	c #747474",
"0	c #777777",
"a	c #7B7B7B",
"b	c #7F7F7F",
"c	c #828282",
"d	c #848484",
"e	c #868686",
"f	c #888888",
"g	c #8B8B8B",
"h	c #8D8D8D",
"i	c #8F8F8F",
"j	c #929292",
"k	c #949494",
"l	c #969696",
"m	c #989898",
"n	c #9C9C9C",
"o	c #9F9F9F",
"p	c #A3A3A3",
"q	c #A6A6A6",
"r	c #AAAAAA",
"s	c #ACACAC",
"t	c #AEAEAE",
"u	c #B1B1B1",
"v	c #B3B3B3",
"w	c #B5B5B5",
"x	c #B7B7B7",
"y	c #BABABA",
"z	c #BCBCBC",
"A	c #BFBFBF",
"B	c #C3C3C3",
"C	c #C5C5C5",
"D	c #C7C7C7",
"E	c #C9C9C9",
"F	c #CCCCCC",
"G	c #CFCFCF",
"H	c #D2D2D2",
"I	c #D5D5D5",
"J	c #D7D7D7",
"K	c #D9D9D9",
"L	c #DBDBDB",
"M	c #DDDDDD",
"N	c #DFDFDF",
"O	c #E2E2E2",
"P	c #E4E4E4",
"Q	c #E7E7E7",
"R	c #E9E9E9",
"S	c #EBEBEB",
"T	c #EEEEEE",
"U	c #F2F2F2",
"V	c #F4F4F4",
"W	c #F6F6F6",
"X	c #F8F8F8",
"Y	c #FBFBFB",
"Z	c #FEFEFE",
"                                                ",
"               ZWQQVZZ                          ",
"               YI02kFQYZ                        ",
"               ZJ~..+2vQY                       ",
"               ZS7.....0OZ                      ",
"                Yx......nU                      ",
"                ZI$.....<P    ZZYYZZ            ",
"                ZF......^OZZXUPIByEMTYZ         ",
"                Yw......3KOHuc:%...'0xMUZZ      ",
"                Vk....../6_$..........~fGX      ",
"             ZYVK1......................-I      ",
"         ZYUQKAk}........................A      ",
"      ZYUNBj|;...........................B      ",
"    ZWNBh^...............................G      ",
"    YG2.................................;L      ",
"    XC:......................)2gd.......4R      ",
"    ZUGh)................]0rFMRTx.......oW      ",
"      ZUKva!.........&fvFMTXZZ Yt.......DY      ",
"        ZXTMEp9).....hRYZZ     Vm......~MZ      ",
"           ZZWPd.....DY        Ta......7S       ",
"              S6....~MZ        Q}......lV       ",
"             ZM)....0T         M~......AY       ",
"             YC.....wY        ZI&.....'LZ       ",
"             Wo....>KZ        ZE......7S        ",
"             S7....0T         Yz......pW        ",
"            ZK,....tX         Ys......BY        ",
"            Yw....-JZ         Vk.....'LZ        ",
"            T9....aT          T8.....7S         ",
"           ZJ-....BY          O:.....rX         ",
"           Xs....[PZ         ZJ=....@GZ         ",
"          ZM_....xX          YB.....<PZ         ",
"          Wq....5QZ          Wp.....eU          ",
"         YI{...>GY           T0.....AY          ",
"        ZTd....uW           ZO/....^MZ          ",
"        YA+...iTZ           YE.....kU           ",
"       YJ(...fQZ            Uj....*HZ           ",
"      ZSb...fQZ            ZN^....bT            ",
"      Wu#.%nQZ             YA....*GY            ",
"     YG<.^AUZ             ZQ5....eT             ",
"     To}eIXZ           ZZYWu....)IY             ",
"     WHITY             ZSCu,....pV              ",
"     ZXZZ              Ww,.....}NZ              ",
"                       YC+....=DY               ",
"                       ZQ2....pV                ",
"                        YA...0QZ                ",
"                        ZQ5.|JY                 ",
"                         YQGPY                  ",
"                                                "};
