/* XPM */
static char * nexuiz_xpm[] = {
"48 48 91 1",
" 	c None",
".	c #0E100D",
"+	c #131412",
"@	c #1D1E1C",
"#	c #1F211E",
"$	c #212320",
"%	c #232522",
"&	c #252724",
"*	c #272826",
"=	c #2A2C29",
"-	c #2D2E2C",
";	c #2F312E",
">	c #323331",
",	c #343633",
"'	c #363735",
")	c #383937",
"!	c #393B38",
"~	c #3C3D3B",
"{	c #3D3F3C",
"]	c #3F403E",
"^	c #40413F",
"/	c #414340",
"(	c #444643",
"_	c #454744",
":	c #464845",
"<	c #474946",
"[	c #484947",
"}	c #494B48",
"|	c #4A4C4A",
"1	c #4C4E4B",
"2	c #4D4F4C",
"3	c #4F514E",
"4	c #50524F",
"5	c #525351",
"6	c #545653",
"7	c #575956",
"8	c #5A5C59",
"9	c #5C5E5B",
"0	c #5F615E",
"a	c #616360",
"b	c #636562",
"c	c #656764",
"d	c #686A67",
"e	c #6B6D6A",
"f	c #6E6F6D",
"g	c #70726F",
"h	c #727471",
"i	c #757774",
"j	c #787977",
"k	c #7B7D7A",
"l	c #7E807D",
"m	c #818380",
"n	c #838582",
"o	c #858784",
"p	c #878986",
"q	c #898B88",
"r	c #8C8E8B",
"s	c #8E908D",
"t	c #90928F",
"u	c #939592",
"v	c #959794",
"w	c #979996",
"x	c #9A9C99",
"y	c #9FA19E",
"z	c #A5A7A4",
"A	c #AAACA9",
"B	c #B0B2AF",
"C	c #B5B7B4",
"D	c #B9BBB8",
"E	c #BEC0BD",
"F	c #C3C5C2",
"G	c #C7CAC6",
"H	c #CDCFCB",
"I	c #D2D4D1",
"J	c #D5D8D4",
"K	c #D8DAD7",
"L	c #DBDDDA",
"M	c #DEE0DD",
"N	c #E1E3E0",
"O	c #E4E6E2",
"P	c #E7E9E6",
"Q	c #EAECE8",
"R	c #EDEFEC",
"S	c #F1F3EF",
"T	c #F3F5F2",
"U	c #F5F7F4",
"V	c #F7F9F6",
"W	c #F8FBF7",
"X	c #FAFCF9",
"Y	c #FBFDFA",
"Z	c #FDFFFC",
"                    #%=--=&#                    ",
"                #'3ekoqrrrokd2,#                ",
"              *3ke60kuxwuuvwxwtk6=              ",
"            &7pxs[Cxb[6juuttttuvxr0=            ",
"          @_nwutu2AZZLx8}quttttttuxq2#          ",
"         %cuusssum}QZZZWw_stsssssssuwg=         ",
"        =kvssssssv3yZYYZZgcussstuutssvn'        ",
"       >murrrrrrrucjZXXYZy4vutqkc0iptuup!       ",
"      -mtrrrrrrrrt0oZWWXZu}i81}8lpb11alur'      ",
"     %isqqqqqqqqqs2AZWWYSe(drDMWZZYOCk4<dl-     ",
"    @0roooooopqqpl{HZWWWSJQZZZZXWWWZZZSDf6d#    ",
"    /ommmmnonjc4<}gSWWWVWZXWVWWWWWWWVVXZP}k2    ",
"   &hmllmle5_2evFPXWUUUUUUUUUUUUUUUUUUVYD(lk-   ",
"   1ljkg2/8qEPZZZWUUUUUUUUUUUUVWWVUUUUVWt[kl6   ",
"  &eiic}uIVZZWTTTTTTTTTTTUUVWWWSMPUTTTUSd7jih-  ",
"  /igh92DQVWUUTSSSSSSSUVWWTPJCug4HXSSSVJ}bgfi}  ",
" #8feee7{5oDMSVWVUSSSSRNGAob}^/}{KWSSSVC^deefa% ",
" =bccccdc6/{5jyEJNSSSTC6({/28bda2PTSSSTr/dcccc> ",
" !a000000aa94({^]zWSSRi!80aa00048SSSSSPb}a000b^ ",
" /97777777788887'DWRSJ228777778:eVRRRSI[487778[ ",
"#:65555555555553(LSRSB!45555556{mWRRRSB!455555}$",
"$_1}}}}}}}}}}}1]0SQRQk)2}}}}}}2'wVQQRRp)1}}}}1[&",
"%/_(((((((((((_>pUQRJ4{(((((((_>AUQQQOa!_((((((&",
"%{^]]]]]]]]]]]]>CSPRB){]]]]]]]{'ESPPRG_~]]]]]]]&",
"$=============*/LQPPm&========*!JRPPRA;========%",
"#..............eSPQJ6+.........(MPPPPo@........@",
"$&***********&&zSOQB'&********%8PPOPL0%&*******$",
"$=-----------=(LPPMi=---------&gROOPF^=-------=$",
" =>>>>>>>>>>>*oSNPC{;>>>>>>>>>=rRNOPy;>>>>>>>>-$",
" =!)))))))))'{IPOKe;!)))))))));BQNOMg;)))))))!- ",
" &{{{{{{{{{{-oRNNv,{{{{{{{{{{~{HOMOG<){{{{{{{{= ",
" $~(///////{(JOOB(!//////////!7OMMOw,///////({$ ",
"  >[::::::<;xQNE4)<:::::::::<,nQMMJ0!<::::::['  ",
"  &<}}}}}})0ONE8'}}}}}}}}}}}}'COLNA!:}}}}}}}}*  ",
"   !2}}}2(^HOC6'11}}}}}}}}}1/3LMMJd!2}}}}}}2{#  ",
"   &}222}>APz}!2222222222223,rPLMA~}22222221=   ",
"    >322>rLn{{3222222222223_(IMLIa!22222224)    ",
"    #]3!iE0'(21111111112:~);xOJLv)}1111112($    ",
"     &{}l/)[}}}}}}}}}}}})qrlMJLE2{}}}}}}}<*     ",
"      &!)^<____________:)hQMJJIi,:_____:_=      ",
"       =^(//////////////{!DLJJx){//////^=       ",
"        &){~!!!!!!!!!!!!~;hMKC},~!!!!~!*        ",
"         %;'',,,,,,,,,,,,>)DG0-',,,''>%         ",
"          #*-;;;;;;;;;;;;;=ek--;;;;-*$          ",
"            $&=============;>=====*%            ",
"              $$%%%%%%%%%%%%%%%%%$#             ",
"                $##############$                ",
"                    $######$$                   "};
