/* XPM */
static char * nexuiz_xpm[] = {
"48 48 218 2",
"  	c None",
". 	c #1F1F1F",
"+ 	c #252525",
"@ 	c #2A2A2A",
"# 	c #2D2D2D",
"$ 	c #262626",
"% 	c #202020",
"& 	c #363636",
"* 	c #505050",
"= 	c #6D6D6D",
"- 	c #7D7D7D",
"; 	c #868686",
"> 	c #8B8B8B",
", 	c #8F8F8F",
"' 	c #8C8C8C",
") 	c #7B7B7B",
"! 	c #696969",
"~ 	c #4F4F4F",
"{ 	c #353535",
"] 	c #212121",
"^ 	c #282828",
"/ 	c #6C6C6C",
"( 	c #555555",
"_ 	c #616161",
": 	c #7C7C7C",
"< 	c #949494",
"[ 	c #9D9D9D",
"} 	c #9A9A9A",
"| 	c #969696",
"1 	c #979797",
"2 	c #999999",
"3 	c #9B9B9B",
"4 	c #939393",
"5 	c #565656",
"6 	c #2C2C2C",
"7 	c #272727",
"8 	c #595959",
"9 	c #888888",
"0 	c #9C9C9C",
"a 	c #919191",
"b 	c #494949",
"c 	c #B6B6B6",
"d 	c #656565",
"e 	c #787878",
"f 	c #989898",
"g 	c #5F5F5F",
"h 	c #1C1C1C",
"i 	c #464646",
"j 	c #858585",
"k 	c #959595",
"l 	c #ACACAC",
"m 	c #FFFFFF",
"n 	c #DCDCDC",
"o 	c #9E9E9E",
"p 	c #5B5B5B",
"q 	c #4B4B4B",
"r 	c #929292",
"s 	c #8A8A8A",
"t 	c #242424",
"u 	c #666666",
"v 	c #818181",
"w 	c #EBEBEB",
"x 	c #FBFBFB",
"y 	c #909090",
"z 	c #717171",
"A 	c #A2A2A2",
"B 	c #FDFDFD",
"C 	c #676767",
"D 	c #848484",
"E 	c #333333",
"F 	c #828282",
"G 	c #8E8E8E",
"H 	c #686868",
"I 	c #797979",
"J 	c #FCFCFC",
"K 	c #A1A1A1",
"L 	c #525252",
"M 	c #757575",
"N 	c #898989",
"O 	c #3B3B3B",
"P 	c #2E2E2E",
"Q 	c #8D8D8D",
"R 	c #606060",
"S 	c #878787",
"T 	c #5C5C5C",
"U 	c #4D4D4D",
"V 	c #7E7E7E",
"W 	c #646464",
"X 	c #636363",
"Y 	c #7F7F7F",
"Z 	c #373737",
"` 	c #767676",
" .	c #ADADAD",
"..	c #FAFAFA",
"+.	c #F4F4F4",
"@.	c #6E6E6E",
"#.	c #444444",
"$.	c #6B6B6B",
"%.	c #BABABA",
"&.	c #DEDEDE",
"*.	c #F9F9F9",
"=.	c #E4E4E4",
"-.	c #515151",
";.	c #484848",
">.	c #1D1D1D",
",.	c #3F3F3F",
"'.	c #D0D0D0",
").	c #D9D9D9",
"!.	c #EDEDED",
"~.	c #FEFEFE",
"{.	c #F0F0F0",
"].	c #BDBDBD",
"^.	c #6F6F6F",
"/.	c #6A6A6A",
"(.	c #424242",
"_.	c #838383",
":.	c #F1F1F1",
"<.	c #F8F8F8",
"[.	c #EAEAEA",
"}.	c #737373",
"|.	c #808080",
"1.	c #545454",
"2.	c #4E4E4E",
"3.	c #C5C5C5",
"4.	c #E9E9E9",
"5.	c #F7F7F7",
"6.	c #BCBCBC",
"7.	c #434343",
"8.	c #5A5A5A",
"9.	c #C0C0C0",
"0.	c #F6F6F6",
"a.	c #575757",
"b.	c #777777",
"c.	c #D3D3D3",
"d.	c #F5F5F5",
"e.	c #DFDFDF",
"f.	c #E7E7E7",
"g.	c #585858",
"h.	c #5D5D5D",
"i.	c #D6D6D6",
"j.	c #B8B8B8",
"k.	c #CDCDCD",
"l.	c #4C4C4C",
"m.	c #727272",
"n.	c #707070",
"o.	c #3D3D3D",
"p.	c #535353",
"q.	c #E1E1E1",
"r.	c #F2F2F2",
"s.	c #F3F3F3",
"t.	c #EEEEEE",
"u.	c #E2E2E2",
"v.	c #C9C9C9",
"w.	c #A9A9A9",
"x.	c #414141",
"y.	c #4A4A4A",
"z.	c #DADADA",
"A.	c #626262",
"B.	c #A0A0A0",
"C.	c #D4D4D4",
"D.	c #B5B5B5",
"E.	c #454545",
"F.	c #E8E8E8",
"G.	c #3A3A3A",
"H.	c #5E5E5E",
"I.	c #404040",
"J.	c #A5A5A5",
"K.	c #EFEFEF",
"L.	c #B9B9B9",
"M.	c #D8D8D8",
"N.	c #474747",
"O.	c #DDDDDD",
"P.	c #AFAFAF",
"Q.	c #3E3E3E",
"R.	c #B1B1B1",
"S.	c #232323",
"T.	c #ECECEC",
"U.	c #393939",
"V.	c #343434",
"W.	c #AEAEAE",
"X.	c #323232",
"Y.	c #B3B3B3",
"Z.	c #C2C2C2",
"`.	c #CCCCCC",
" +	c #3C3C3C",
".+	c #2B2B2B",
"++	c #292929",
"@+	c #ABABAB",
"#+	c #303030",
"$+	c #111111",
"%+	c #0F0F0F",
"&+	c #101010",
"*+	c #141414",
"=+	c #0E0E0E",
"-+	c #E0E0E0",
";+	c #1E1E1E",
">+	c #222222",
",+	c #A6A6A6",
"'+	c #E6E6E6",
")+	c #B2B2B2",
"!+	c #E5E5E5",
"~+	c #E3E3E3",
"{+	c #9F9F9F",
"]+	c #313131",
"^+	c #D1D1D1",
"/+	c #B0B0B0",
"(+	c #2F2F2F",
"_+	c #CFCFCF",
":+	c #C8C8C8",
"<+	c #D7D7D7",
"[+	c #C1C1C1",
"}+	c #CECECE",
"|+	c #B7B7B7",
"1+	c #DBDBDB",
"2+	c #AAAAAA",
"3+	c #BEBEBE",
"4+	c #383838",
"5+	c #CACACA",
"                                        . + @ # # @ $ %                                         ",
"                                . & * = - ; > , , ' ; ) ! ~ { ]                                 ",
"                            ^ * ) / ( _ : < [ } | | 1 2 3 } 4 - 5 6                             ",
"                        7 8 9 0 a b c 3 d b ( e | | 4 4 4 4 < f 3 ' g 6                         ",
"                    h i j } | 4 k ~ l m m n o p q > | r 4 4 4 r r k 3 s ~ .                     ",
"                  t u | k a a a < v q w m m m x 2 i y r a a a a a a a < 2 z @                   ",
"                6 ) f a y y y y y 1 * A m B B m m z C k y y a r k k 4 a y 1 D &                 ",
"              E F k G G G G G G G < H I m J J B m K L 1 < r > ) u _ M 9 4 < | N O               ",
"            P F r ' Q Q Q Q Q Q Q r R S m x x J m < q M T U q p V N W U U X Y < Q Z             ",
"          + ` y s s s s s s s s s y ~  .m ....B +.@.#.$.G %.&.*.m m B =.c : -.;.! Y #           ",
"        >._ Q ; ; ; ; ; S 9 s > N V ,.'.m ......+.).!.m m m m J ..*.x ~.m m {.].^.( /.]         ",
"        (.S _.F F _.j S j I C L ;.q z :.x *.*.<.*.~.J *.<.*.*.*.*.*.*.*.<.<.J m [.q : ~         ",
"      7 }.v V |._.V / 1.i 2./ f 3.4.J *.5.5.5.5.5.5.5.5.5.5.5.5.5.5.5.5.5.5.<.B 6.#.V ) #       ",
"      U Y e ) z 2.7.8.> 9.[.m m m ..5.0.0.0.0.0.0.0.0.0.0.5.<.*.x <.0.0.0.0.<...r b - V a.      ",
"    7 @.b.b.C q < c.<.m ~.*.d.d.d.d.d.d.d.d.d.d.d.0.5.<.....*.:.e.f.5.d.d.d.5.{.! g.I ` }.#     ",
"    (.M z }.h.2.6.w <.*.5.0.d.+.+.+.+.+.+.+.0.<.*.*.d.[.i.j.k z -.k.J +.+.+.<.).l.d m.n.` q     ",
"  % 8.^./ / @.8 o.p.S 6.q.r.<.*.<.0.s.s.s.+.t.u.v.w.; d l.x.(.y.o.z.*.s.s.s.<.c x.$.= / ^.A.t   ",
"  6 d C u u u ! C 5 (.,.1.e B.9.C.u.r.r.r.d.D.5 E.,.7.2.8.W /.A.~ F.d.r.r.s.d.' 7.! u u u H E   ",
"  G.X R R R R R R A.X H.L #.o.x.I.J.x {.r.K.b.G.p R X X _ R _ L T s.r.{.{.s.4.d q A.R R R W x.  ",
"  7.h.8 8 8 8 8 8 8 8 8.p T p g.& L.*.K.s.M.~ ~ T 8 8 8 8 8 p N.@.<.K.K.K.s.c.b L 8.8 8 8 T b   ",
"] N.( p.p.p.p.p.p.p.p.p.p.p.p.* E.O.r.t.s.P.O L p.p.p.p.p.p.( Q._...t.t.t.s.R.O L p.p.p.p.1.q S.",
"S.i U l.l.l.l.l.l.l.l.l.l.l.U I.g :.!.t.T.- U.2.l.l.l.l.l.l.2.& 2 <.T.T.t.K.9 U.U l.l.l.l.U b $ ",
"t (.i E.E.E.E.E.E.E.E.E.E.E.i V.9 5.w K.).L o.E.E.E.E.E.E.E.i V.W.0.w w !.=.A.G.i E.E.E.E.E.#.7 ",
"t ,.x.I.I.I.I.I.I.I.I.I.I.I.I.X.c +.[.K.Y.U.,.I.I.I.I.I.I.I.,.& Z.:.[.[.t.`.i  +I.I.I.I.I.I.I.7 ",
"S..+.+.+.+.+.+.+.+.+.+.+.+.+++(.O.!.[.[._.7 .+.+.+.+.+.+.+.+++O C.t.4.4.t.@+#+@ .+.+.+.+.+.+.+t ",
"% $+%+&+&+&+&+&+&+&+&+&+&+%+&+= :.F.w M.a.*+%+&+&+&+&+&+&+%+=+#.-+[.F.4.4.; >.=+&+&+&+&+&+&+&+;+",
">+7 ^ ^ ^ ^ ^ ^ ^ ^ ^ ^ ^ 7 7 ,+r.'+w )+& $ ^ ^ ^ ^ ^ ^ ^ ^ t 8.4.f.'+4.O.g + 7 ^ ^ ^ ^ ^ ^ ^ >+",
">+@ P P P P P P P P P P P @ E.n F.f.q.M @ # P P P P P P P P 7 m.K.!+!+4.3.x.@ P P P P P P P 6 >+",
"  6 V.E E E E E E E E E E ++S :.~+F.j.,.#+E E E E E E E E E @ G K.~+=.F.{+]+X.E E E E E E V.P >+",
"  .+G.U.U.U.U.U.U.U.U.U.& Q.^+f.!+z./ #+G.U.U.U.U.U.U.U.U.U.]+/+T.u.=.q.m.#+U.U.U.U.U.U.U.G.P   ",
"  7 Q.,.Q.Q.Q.Q.Q.Q.Q.,.(+; t.u.~+f { o.Q.Q.Q.Q.Q.Q.Q.Q.Q. +,._+!+q.!+:+;.U.Q.Q.Q.Q.Q.Q.Q.,.@   ",
"  >+ +#.7.7.7.7.7.7.7.o.E.<+!+=.Y.#.O 7.7.7.7.7.7.7.7.7.7.O 8 =.-+-+=.2 { (.7.7.7.7.7.7.#.,.S.  ",
"    E b N.N.N.N.N.N.;.]+[ T.~+9.L U.;.N.N.N.N.N.N.N.N.N.;.{ D w &.q.i._ G.;.N.N.N.N.N.N.b Z     ",
"    $ ;.q y.y.y.y.l.U._ '+~+[+8.Z q y.y.y.y.y.y.y.y.y.y.y.& c '+O.u.@+O N.y.y.y.y.y.y.y.y.++    ",
"      G.~ l.l.l.2.#.x.}+'+|+a.Z U U l.l.l.l.l.l.l.l.l.U 7.* O.&.e.<+/.O 2.l.l.l.l.l.l.~ ,.%     ",
"      $ q ~ 2.~ q V.l F.,+q G.2.2.2.2.2.2.2.2.2.2.2.2.* { , F.1+e.2+ +y.~ 2.2.2.2.2.2.U @       ",
"        V.* 2.2.E ' n j Q.,.* 2.2.2.2.2.2.2.2.2.~ ~ * i E.c.&.O.^+A.O ~ 2.2.2.2.2.2.-.U.        ",
"        ] I.* O ` 3+g & E.~ U U U U U U U U U 2.N. +U.#+0 !+).n f 4+q U U U U U U ~ E.>+        ",
"          $ ,.y.V (.U.b q y.y.y.y.y.y.y.y.y.y.q 4+> ' |.q.).n 9.2.,.l.y.y.y.y.y.q ;.++          ",
"            7 O U.x.;.i i i i i i i i i i i i N.4+}.w q.M.).c.M { N.i i i i i N.i 6             ",
"              @ x.#.(.(.(.(.(.(.(.(.(.(.(.(.(.(.,.G.6.O.<+).3 4+,.(.(.(.(.(.7.x.6               ",
"                7 U.o. +O O O O O O O O O O O O  +#+}.e.z.c q {  +O O O O  +G.++                ",
"                  t ]+& & { { { { { { { { { { { { V.4+].5+R (+& { { { & & X.+                   ",
"                    ] ^ (+#+#+#+#+#+#+#+#+#+#+#+#+#+.+= ) P (+#+#+#+#+(+++>+                    ",
"                        S.7 @ .+.+.+.+.+.+.+.+.+.+.+.+]+X..+@ .+.+@ ^ t                         ",
"                            >+S.t + + + + + + + + + + t t + + t t >+]                           ",
"                                >+] ] ] % % % % % % % % % ] ] >+                                ",
"                                        >+] ] ] ] ] ] >+>+                                      "};
